<svg width="54" height="54" viewBox="0 0 54 54" fill="none" xmlns="http://www.w3.org/2000/svg">
<rect x="0.5" y="0.5" width="53" height="53" rx="7" fill="white" stroke="#6E6BEF"/>
<path d="M27.2799 41.6799C19.3268 41.6799 12.8799 35.233 12.8799 27.2799C12.8799 19.3268 19.3268 12.8799 27.2799 12.8799C35.233 12.8799 41.6799 19.3268 41.6799 27.2799C41.6799 35.233 35.233 41.6799 27.2799 41.6799ZM27.2799 38.7999C30.3352 38.7999 33.2653 37.5862 35.4258 35.4258C37.5862 33.2653 38.7999 30.3352 38.7999 27.2799C38.7999 24.2246 37.5862 21.2944 35.4258 19.134C33.2653 16.9736 30.3352 15.7599 27.2799 15.7599C24.2246 15.7599 21.2944 16.9736 19.134 19.134C16.9736 21.2944 15.7599 24.2246 15.7599 27.2799C15.7599 30.3352 16.9736 33.2653 19.134 35.4258C21.2944 37.5862 24.2246 38.7999 27.2799 38.7999ZM25.8442 33.0399L19.7343 26.93L21.7704 24.8938L25.8442 28.9676L33.9903 20.8215L36.0264 22.8576L25.8442 33.0399Z" fill="#6E6BEF"/>
</svg>
