<svg width="54" height="54" viewBox="0 0 54 54" fill="none" xmlns="http://www.w3.org/2000/svg">
<rect x="0.5" y="0.5" width="53" height="53" rx="7" fill="white" stroke="#6E6BEF"/>
<path d="M38.6601 22.3637C38.5918 22.2074 38.4962 22.0646 38.3778 21.9418L29.7378 13.3018C29.6151 13.1834 29.4722 13.0878 29.3159 13.0196C29.2727 12.9994 29.2266 12.9879 29.1806 12.972C29.0601 12.931 28.9346 12.9063 28.8076 12.8986C28.7774 12.8957 28.75 12.8799 28.7198 12.8799H18.6398C17.0514 12.8799 15.7598 14.1716 15.7598 15.7599V38.7999C15.7598 40.3882 17.0514 41.6799 18.6398 41.6799H35.9198C37.5081 41.6799 38.7998 40.3882 38.7998 38.7999V22.9599C38.7998 22.9296 38.7839 22.9023 38.781 22.8706C38.774 22.7435 38.7493 22.6179 38.7076 22.4976C38.6932 22.4516 38.6802 22.4069 38.6601 22.3637ZM33.8836 21.5199H30.1598V17.796L33.8836 21.5199ZM18.6398 38.7999V15.7599H27.2798V22.9599C27.2798 23.3418 27.4315 23.7081 27.7015 23.9781C27.9716 24.2482 28.3379 24.3999 28.7198 24.3999H35.9198L35.9226 38.7999H18.6398Z" fill="#6E6BEF"/>
<path d="M21.5195 27.28H33.0395V30.16H21.5195V27.28ZM21.5195 33.04H33.0395V35.92H21.5195V33.04ZM21.5195 21.52H24.3995V24.4H21.5195V21.52Z" fill="#6E6BEF"/>
</svg>
