<svg width="54" height="54" viewBox="0 0 54 54" fill="none" xmlns="http://www.w3.org/2000/svg">
<rect x="0.5" y="0.5" width="53" height="53" rx="7" fill="white" stroke="#6E6BEF"/>
<path d="M12.1602 20.2599C12.1602 18.971 12.6722 17.7348 13.5836 16.8234C14.495 15.9119 15.7312 15.3999 17.0202 15.3999H37.5402C38.8291 15.3999 40.0653 15.9119 40.9767 16.8234C41.8881 17.7348 42.4002 18.971 42.4002 20.2599V34.2999C42.4002 35.5889 41.8881 36.825 40.9767 37.7364C40.0653 38.6479 38.8291 39.1599 37.5402 39.1599H17.0202C15.7312 39.1599 14.495 38.6479 13.5836 37.7364C12.6722 36.825 12.1602 35.5889 12.1602 34.2999V20.2599ZM17.0202 17.5599C16.3041 17.5599 15.6173 17.8444 15.111 18.3507C14.6046 18.8571 14.3202 19.5438 14.3202 20.2599V21.8799H40.2402V20.2599C40.2402 19.5438 39.9557 18.8571 39.4493 18.3507C38.943 17.8444 38.2562 17.5599 37.5402 17.5599H17.0202ZM14.3202 34.2999C14.3202 35.016 14.6046 35.7027 15.111 36.2091C15.6173 36.7154 16.3041 36.9999 17.0202 36.9999H37.5402C38.2562 36.9999 38.943 36.7154 39.4493 36.2091C39.9557 35.7027 40.2402 35.016 40.2402 34.2999V24.0399H14.3202V34.2999ZM32.6802 30.5199H35.9202C36.2066 30.5199 36.4813 30.6337 36.6838 30.8362C36.8864 31.0388 37.0002 31.3135 37.0002 31.5999C37.0002 31.8863 36.8864 32.161 36.6838 32.3636C36.4813 32.5661 36.2066 32.6799 35.9202 32.6799H32.6802C32.3937 32.6799 32.119 32.5661 31.9165 32.3636C31.7139 32.161 31.6002 31.8863 31.6002 31.5999C31.6002 31.3135 31.7139 31.0388 31.9165 30.8362C32.119 30.6337 32.3937 30.5199 32.6802 30.5199Z" fill="#6E6BEF"/>
</svg>
