<svg width="35" height="35" viewBox="0 0 35 35" fill="none" xmlns="http://www.w3.org/2000/svg">
<path d="M12.96 7.19971H10.08C9.31613 7.19971 8.58359 7.50313 8.04348 8.04324C7.50338 8.58334 7.19995 9.31588 7.19995 10.0797V27.3597C7.19995 28.1235 7.50338 28.8561 8.04348 29.3962C8.58359 29.9363 9.31613 30.2397 10.08 30.2397H24.48C25.2438 30.2397 25.9763 29.9363 26.5164 29.3962C27.0565 28.8561 27.36 28.1235 27.36 27.3597V10.0797C27.36 9.31588 27.0565 8.58334 26.5164 8.04324C25.9763 7.50313 25.2438 7.19971 24.48 7.19971H21.6" stroke="#F49172" stroke-width="2" stroke-linecap="round" stroke-linejoin="round"/>
<path d="M20.16 15.8398H16.56C15.9871 15.8398 15.4377 16.0674 15.0326 16.4725C14.6275 16.8776 14.4 17.427 14.4 17.9998C14.4 18.5727 14.6275 19.1221 15.0326 19.5272C15.4377 19.9323 15.9871 20.1598 16.56 20.1598H18C18.5728 20.1598 19.1222 20.3874 19.5273 20.7925C19.9324 21.1976 20.16 21.747 20.16 22.3198C20.16 22.8927 19.9324 23.4421 19.5273 23.8472C19.1222 24.2523 18.5728 24.4798 18 24.4798H14.4M17.28 24.4798V25.9198M17.28 14.3998V15.8398M12.96 7.19982C12.96 6.436 13.2634 5.70346 13.8035 5.16336C14.3436 4.62325 15.0761 4.31982 15.84 4.31982H18.72C19.4838 4.31982 20.2163 4.62325 20.7564 5.16336C21.2965 5.70346 21.6 6.436 21.6 7.19982C21.6 7.96365 21.2965 8.69619 20.7564 9.23629C20.2163 9.7764 19.4838 10.0798 18.72 10.0798H15.84C15.0761 10.0798 14.3436 9.7764 13.8035 9.23629C13.2634 8.69619 12.96 7.96365 12.96 7.19982Z" stroke="#F49172" stroke-width="2" stroke-linecap="round" stroke-linejoin="round"/>
</svg>
