<svg width="14" height="14" viewBox="0 0 14 14" fill="none" xmlns="http://www.w3.org/2000/svg">
<path d="M10.0651 6.56252H8.645C8.32947 6.56251 8.01767 6.49423 7.73101 6.36238C7.44434 6.23052 7.1896 6.03822 6.98425 5.79865L5.66825 4.2639C5.4629 4.02433 5.20815 3.83202 4.92149 3.70017C4.63483 3.56832 4.32303 3.50004 4.0075 3.50002H2.1875C2.07147 3.50002 1.96019 3.54612 1.87814 3.62816C1.79609 3.71021 1.75 3.82149 1.75 3.93752C1.75 4.05356 1.79609 4.16483 1.87814 4.24688C1.96019 4.32893 2.07147 4.37502 2.1875 4.37502H4.0075C4.19686 4.37503 4.38398 4.41601 4.55601 4.49515C4.72804 4.5743 4.88091 4.68973 5.00412 4.83352L6.31925 6.36827C6.53538 6.62027 6.78912 6.83202 7.06737 7.00002C6.78573 7.16912 6.53313 7.38243 6.31925 7.63177L5.005 9.16652C4.88169 9.31043 4.72868 9.42593 4.55649 9.50508C4.3843 9.58422 4.19701 9.62514 4.0075 9.62502H2.1875C2.07147 9.62502 1.96019 9.67112 1.87814 9.75316C1.79609 9.83521 1.75 9.94649 1.75 10.0625C1.75 10.1786 1.79609 10.2898 1.87814 10.3719C1.96019 10.4539 2.07147 10.5 2.1875 10.5H4.0075C4.32303 10.5 4.63483 10.4317 4.92149 10.2999C5.20815 10.168 5.4629 9.97572 5.66825 9.73615L6.98425 8.2014C7.1896 7.96183 7.44434 7.76952 7.73101 7.63767C8.01767 7.50582 8.32947 7.43754 8.645 7.43752H10.8614L8.855 9.77815C8.77958 9.86633 8.74228 9.98087 8.7513 10.0966C8.76033 10.2122 8.81494 10.3196 8.90313 10.395C8.99131 10.4704 9.10584 10.5077 9.22153 10.4987C9.33722 10.4897 9.44458 10.4351 9.52 10.3469L12.145 7.2844C12.2128 7.20515 12.25 7.1043 12.25 7.00002C12.25 6.89574 12.2128 6.79489 12.145 6.71565L9.52 3.65315C9.44458 3.56496 9.33722 3.51035 9.22153 3.50133C9.10584 3.4923 8.99131 3.5296 8.90313 3.60502C8.81494 3.68044 8.76033 3.78781 8.7513 3.90349C8.74228 4.01918 8.77958 4.13371 8.855 4.2219L10.8614 6.56252H10.0651Z" fill="#6E6BEF"/>
</svg>
